<?xml version="1.0" encoding="iso-8859-1"?>
<!-- Generator: Adobe Illustrator 16.0.0, SVG Export Plug-In . SVG Version: 6.00 Build 0)  -->
<!DOCTYPE svg PUBLIC "-//W3C//DTD SVG 1.1//EN" "http://www.w3.org/Graphics/SVG/1.1/DTD/svg11.dtd">
<svg xmlns="http://www.w3.org/2000/svg" xmlns:xlink="http://www.w3.org/1999/xlink" version="1.1" id="Capa_1" x="0px" y="0px" width="512px" height="512px" viewBox="0 0 349.313 349.313" style="enable-background:new 0 0 349.313 349.313;" xml:space="preserve">
<g>
	<g>
		<path d="M158.56,316.409c1.485,1.345,36.863,32.904,88.877,32.904c5.048,0,10.151-0.31,15.214-0.919    c56.533-6.829,77.257-43.066,84.568-64.048c4.18-11.924-3.808-24.756-13.903-29.265l-66.358-29.493    c-3.194-1.411-7.008-2.152-11.02-2.152c-8.211,0-16.433,3.041-21.465,7.932l-20.906,20.256c-3.117,3.006-8.643,5.037-13.746,5.037    c-2.188,0-4.123-0.386-5.57-1.112c-14.102-7.078-36.292-21.205-61.854-48.307c-22.699-24.095-33.464-40.586-38.496-50.175    c-2.821-5.365,0.124-14.67,4.534-19.104l18.604-18.588c7.733-7.726,11.217-21.955,7.932-32.39l-20.919-66.43    C100.874,10.45,90.129,0,77.599,0C60.275,0.584,35.927,6.784,18.43,33.045C-8.62,73.644-7,151.813,42.81,207.304    C88.999,258.778,157.976,315.952,158.56,316.409z M28.289,39.626C42.99,17.56,63.579,12.339,78.264,11.842    c5.987,0.023,12.695,6.611,14.487,12.276l20.921,66.43c1.958,6.259-0.373,15.811-5.017,20.446L90.05,129.59    c-7.591,7.609-12.078,22.681-6.652,32.992c5.406,10.262,16.772,27.746,40.362,52.781c26.741,28.36,50.196,43.27,65.158,50.774    c3.072,1.544,6.835,2.361,10.913,2.361c8.221,0,16.646-3.199,21.967-8.358l20.906-20.256c2.834-2.758,8.146-4.605,13.208-4.605    c2.361,0,4.504,0.4,6.216,1.152l66.344,29.493c5.067,2.249,9.46,9.084,7.545,14.513c-6.408,18.387-24.653,50.145-74.803,56.208    c-4.581,0.548-9.212,0.827-13.797,0.827c-46.997,0-79.694-28.741-81.131-30.011c-0.68-0.563-68.896-57.056-114.676-108.064    C7.068,149.752,3.585,76.7,28.289,39.626z" fill="#91DC5A"/>
		<path d="M217.685,211.563c1.62,1.625,3.783,2.519,6.089,2.519c2.301,0,4.58-0.838,6.789-2.488l47.565-35.591    c3.174-2.372,5.018-5.822,5.018-9.481c0-3.648-1.818-7.109-4.986-9.486l-47.403-35.581c-2.204-1.661-4.484-2.499-6.784-2.499    c-4.474,0-8.998,3.573-8.998,10.397v7.221c0,1.089-0.894,1.975-1.976,1.975h-60.529c-7.625,0-13.825,6.2-13.825,13.825v27.563    c0,7.621,6.2,13.822,13.825,13.822h60.529c0.523,0,0.99,0.197,1.361,0.563c0.354,0.36,0.538,0.838,0.538,1.366l-0.066,7.916    C214.801,207.745,216.354,210.208,217.685,211.563z M152.476,181.913c-1.097,0-1.975-0.883-1.975-1.975v-27.563    c0-1.092,0.878-1.976,1.975-1.976h60.532c7.622,0,13.822-6.203,13.822-13.825c0,0,0-0.726,0-1.635c0-0.901,2.829,0.49,6.322,3.113    l31.585,23.707c3.488,2.623,3.483,6.865-0.01,9.473l-31.677,23.702c-3.493,2.615-6.322,3.859-6.312,2.793l0.015-1.935    c0.031-3.702-1.376-7.191-3.966-9.812c-2.609-2.63-6.083-4.077-9.78-4.077h-60.532V181.913z" fill="#91DC5A"/>
	</g>
</g>
<g>
</g>
<g>
</g>
<g>
</g>
<g>
</g>
<g>
</g>
<g>
</g>
<g>
</g>
<g>
</g>
<g>
</g>
<g>
</g>
<g>
</g>
<g>
</g>
<g>
</g>
<g>
</g>
<g>
</g>
</svg>
