<?xml version="1.0" ?><!DOCTYPE svg  PUBLIC '-//W3C//DTD SVG 1.1//EN'  'http://www.w3.org/Graphics/SVG/1.1/DTD/svg11.dtd'><svg enable-background="new 0 0 550 550" id="Layer_1" version="1.1" viewBox="0 0 550 550" xml:space="preserve" xmlns="http://www.w3.org/2000/svg" xmlns:xlink="http://www.w3.org/1999/xlink"><g><g><circle cx="275" cy="275" fill="#662D91" r="256"/><path d="M408.9,222.5c-5,0.5-25.6,5.1-32.5,6.6c-7.4,2-75.2,54.4-79.7,67.2c-1,4.4-1.5,11.3-1.5,17.7l-0.5,10.4     c0,7.4,2.1,19.4,3.1,25.8c4.5,1,36.7,0.1,42.7,1.1l-0.7,13.3c-5.8-0.4-46.8-0.3-70.2-0.3c-11.9,0-50.1,1.3-61.8,1l2.2-12.7     c6.4-0.5,33.1,1.2,38.9-5c2.9-3.1,2-6.4,2-24.2V315c0-4,0-11.4-1-18.3c-2.5-7.4-62.2-82-77.6-93.9c-4.5-1.5-32.4-4.3-39.3-5.8     l-0.3-11.4c3.5-1.7,34.5,0.4,64.6-0.7c19.8-0.7,65,0,70.6,0.7l-1.4,10c-6,1.5-34.6,2-42,4c19.3,28.7,49.8,65.7,59.7,80     c5.4-7.9,53.3-40.8,54.8-52.2c-7.4-1.5-32-5-36-5l-2.3-13c6.7-1.1,42.2,0,59.8,0c15.2,0,47.7,0,56.9,0.8L408.9,222.5z" fill="#FFFFFF"/></g></g></svg>